<?xml version="1.0" standalone="no"?>
<!DOCTYPE svg PUBLIC "-//W3C//DTD SVG 20010904//EN"
 "http://www.w3.org/TR/2001/REC-SVG-20010904/DTD/svg10.dtd">
<svg version="1.0" xmlns="http://www.w3.org/2000/svg"
 width="512.000000pt" height="512.000000pt" viewBox="0 0 512.000000 512.000000"
 preserveAspectRatio="xMidYMid meet">
<metadata>
Created by potrace 1.16, written by Peter Selinger 2001-2019
</metadata>
<g transform="translate(0.000000,512.000000) scale(0.100000,-0.100000)"
fill="#000000" stroke="none">
<path d="M2337 5104 c-300 -54 -579 -234 -759 -489 -283 -400 -292 -946 -22
-1355 176 -267 443 -448 764 -517 118 -25 362 -25 480 0 569 123 960 602 960
1178 0 585 -416 1084 -985 1184 -109 19 -332 18 -438 -1z"/>
<path d="M1960 2584 c-438 -45 -782 -204 -1075 -498 -261 -263 -420 -578 -479
-952 -22 -139 -24 -977 -2 -1027 16 -39 61 -82 99 -96 40 -15 4074 -15 4114 0
38 14 83 57 99 96 22 50 20 888 -2 1027 -59 374 -218 689 -479 952 -218 219
-477 369 -770 446 -189 49 -195 50 -850 53 -341 1 -636 1 -655 -1z"/>
</g>
</svg>
